# xmcd CD database file
#
# Track frame offsets:
#	150
#	14686
#	28034
#	40546
#	56711
#	69072
#	83121
#	96996
#	114216
#	133177
#	146314
#	159356
#	172088
#	185500
#	197935
#	211105
#	222058
#	236183
#	248469
#	259390
#	271802
#	285945
#	298731
#	312669
#
# Disc length: 4367 seconds
#
# Revision: 6
# Processed by: cddbd v1.4PL0 Copyright (c) Steve Scherf et al.
# Submitted via: CDex 1.50
#
DISCID=5e110d18
DTITLE=Bolero Latino - Cien Años del Bolero
DYEAR=1900
DGENRE=Salsa
TTITLE0=Inolvidable
TTITLE1=Un Imposible Amor
TTITLE2=Camino del Puente
TTITLE3=Tiemblas
TTITLE4=Percal
TTITLE5=Porqué Ahora
TTITLE6=Sabor a mi
TTITLE7=Yesterday (spanish)
TTITLE8=Nathalie
TTITLE9=Bajo un Palmar
TTITLE10=Amigo de qué
TTITLE11=Hola Soledad
TTITLE12=Otro Weekend sin ti
TTITLE13=Caribe Soy
TTITLE14=Aunque me cueste la vida
TTITLE15=Cataclismo
TTITLE16=La Cama Vacía
TTITLE17=Esta tu Canción
TTITLE18=Querube
TTITLE19=Tu me haces falta
TTITLE20=Un cigarrillo, la lluvia y tu
TTITLE21=Una noche más
TTITLE22=Bésame mucho
TTITLE23=La última copa
EXTD=
EXTT0=
EXTT1=
EXTT2=
EXTT3=
EXTT4=
EXTT5=
EXTT6=
EXTT7=
EXTT8=
EXTT9=
EXTT10=
EXTT11=
EXTT12=
EXTT13=
EXTT14=
EXTT15=
EXTT16=
EXTT17=
EXTT18=
EXTT19=
EXTT20=
EXTT21=
EXTT22=
EXTT23=
PLAYORDER=
